<svg width="16.000977" height="13.499512" viewBox="0 0 16.001 13.4995" fill="none" xmlns="http://www.w3.org/2000/svg" xmlns:xlink="http://www.w3.org/1999/xlink">
	<desc>
			Created with Pixso.
	</desc>
	<defs/>
	<path id="Vector" d="M0 0.75C0 0.55 0.07 0.36 0.21 0.21C0.36 0.07 0.55 0 0.75 0L5 0C6.22 0 7.31 0.58 8 1.5C8.35 1.03 8.8 0.65 9.32 0.39C9.84 0.13 10.42 -0.01 11 0L15.25 0C15.44 0 15.64 0.07 15.78 0.21C15.92 0.36 16 0.55 16 0.75L16 11.25C16 11.44 15.92 11.63 15.78 11.78C15.64 11.92 15.44 12 15.25 12L10.74 12C10.44 12 10.15 12.05 9.88 12.17C9.6 12.28 9.36 12.45 9.15 12.65L8.53 13.27C8.39 13.42 8.19 13.49 8 13.49C7.8 13.49 7.61 13.42 7.47 13.27L6.84 12.65C6.64 12.45 6.39 12.28 6.11 12.17C5.84 12.05 5.55 12 5.25 12L0.75 12C0.55 12 0.36 11.92 0.21 11.78C0.07 11.63 0 11.44 0 11.25L0 0.75ZM7.25 11.07L7.25 6L7.25 3.74C7.25 3.15 7.01 2.57 6.59 2.15C6.17 1.73 5.59 1.5 5 1.5L1.5 1.5L1.5 10.5L5.25 10.5C5.96 10.5 6.65 10.69 7.25 11.07ZM8.75 3.75L8.75 11.07C9.34 10.69 10.03 10.5 10.74 10.5L14.5 10.5L14.5 1.5L11 1.5C10.4 1.5 9.83 1.73 9.41 2.15C8.99 2.58 8.75 3.15 8.75 3.75Z" fill="#8B949E" fill-opacity="1.000000" fill-rule="nonzero"/>
</svg>
