<svg width="14.000000" height="15.688477" viewBox="0 0 14 15.6885" fill="none" xmlns="http://www.w3.org/2000/svg" xmlns:xlink="http://www.w3.org/1999/xlink">
	<desc>
			Created with Pixso.
	</desc>
	<defs/>
	<path id="Vector" d="M7.87 0.23L13.12 3.28C13.66 3.59 14 4.17 14 4.79L14 10.89C14 11.19 13.91 11.5 13.76 11.76C13.61 12.03 13.39 12.25 13.12 12.4L7.87 15.45C7.61 15.6 7.3 15.68 7 15.68C6.69 15.68 6.38 15.6 6.12 15.45L0.87 12.4C0.6 12.25 0.38 12.03 0.23 11.76C0.08 11.5 0 11.19 0 10.89L0 4.79C0 4.17 0.33 3.59 0.87 3.28L6.12 0.23C6.38 0.08 6.69 0 7 0C7.3 0 7.61 0.08 7.87 0.23ZM6.87 1.53L2.24 4.21L7 6.97L11.75 4.21L7.12 1.53C7.08 1.51 7.04 1.5 7 1.5C6.95 1.5 6.91 1.51 6.87 1.53ZM1.5 5.52L1.5 10.89C1.5 10.98 1.54 11.06 1.62 11.1L6.25 13.79L6.25 8.27L1.5 5.52ZM7.75 13.79L12.37 11.1C12.41 11.08 12.44 11.05 12.46 11.01C12.48 10.98 12.5 10.93 12.5 10.89L12.5 5.52L7.75 8.27L7.75 13.79Z" fill="#8B949E" fill-opacity="1.000000" fill-rule="nonzero"/>
</svg>
