<svg width="16.000000" height="16.000000" viewBox="0 0 16 16" fill="none" xmlns="http://www.w3.org/2000/svg" xmlns:xlink="http://www.w3.org/1999/xlink">
	<desc>
			Created with Pixso.
	</desc>
	<defs/>
	<path id="Vector" d="M0 1.75C0 0.78 0.78 0 1.75 0L14.25 0C15.21 0 16 0.78 16 1.75L16 14.25C16 14.71 15.81 15.15 15.48 15.48C15.15 15.81 14.71 16 14.25 16L1.75 16C1.28 16 0.84 15.81 0.51 15.48C0.18 15.15 0 14.71 0 14.25L0 1.75ZM6.5 6.5L6.5 14.5L14.25 14.5C14.31 14.5 14.37 14.47 14.42 14.42C14.47 14.37 14.5 14.31 14.5 14.25L14.5 6.5L6.5 6.5ZM14.5 5L14.5 1.75C14.5 1.68 14.47 1.62 14.42 1.57C14.37 1.52 14.31 1.5 14.25 1.5L6.5 1.5L6.5 5L14.5 5ZM1.5 6.5L1.5 14.25C1.5 14.38 1.61 14.5 1.75 14.5L5 14.5L5 6.5L1.5 6.5ZM5 5L5 1.5L1.75 1.5C1.68 1.5 1.62 1.52 1.57 1.57C1.52 1.62 1.5 1.68 1.5 1.75L1.5 5L5 5Z" fill="#8B949E" fill-opacity="1.000000" fill-rule="nonzero"/>
</svg>
