<svg width="12.000000" height="15.750000" viewBox="0 0 12 15.75" fill="none" xmlns="http://www.w3.org/2000/svg" xmlns:xlink="http://www.w3.org/1999/xlink">
	<desc>
			Created with Pixso.
	</desc>
	<defs/>
	<path id="Vector" d="M0 2.5C0 1.83 0.26 1.2 0.73 0.73C1.2 0.26 1.83 0 2.5 0L11.25 0C11.44 0 11.63 0.07 11.78 0.21C11.92 0.36 12 0.55 12 0.75L12 13.25C12 13.44 11.92 13.63 11.78 13.78C11.63 13.92 11.44 14 11.25 14L8.75 14C8.55 14 8.36 13.92 8.21 13.78C8.07 13.63 8 13.44 8 13.25C8 13.05 8.07 12.86 8.21 12.71C8.36 12.57 8.55 12.5 8.75 12.5L10.5 12.5L10.5 10.5L2.5 10.5C2.3 10.5 2.11 10.55 1.94 10.66C1.78 10.77 1.65 10.93 1.57 11.11C1.5 11.29 1.48 11.49 1.51 11.68C1.55 11.88 1.64 12.05 1.78 12.2C1.85 12.27 1.9 12.35 1.94 12.44C1.98 12.53 2 12.63 2 12.73C1.99 12.83 1.97 12.92 1.93 13.01C1.9 13.1 1.84 13.19 1.77 13.26C1.7 13.33 1.62 13.38 1.52 13.42C1.43 13.45 1.34 13.47 1.24 13.47C1.14 13.47 1.04 13.45 0.95 13.41C0.86 13.37 0.78 13.32 0.71 13.25C0.25 12.78 -0.01 12.15 0 11.5L0 2.5ZM10.5 1.5L2.5 1.5C2.23 1.5 1.98 1.6 1.79 1.79C1.6 1.98 1.5 2.23 1.5 2.5L1.5 9.2C1.81 9.07 2.15 8.99 2.5 9L10.5 9L10.5 1.5ZM3 12.25C3 12.18 3.02 12.12 3.07 12.07C3.12 12.02 3.18 12 3.25 12L6.75 12C6.81 12 6.87 12.02 6.92 12.07C6.97 12.12 7 12.18 7 12.25L7 15.5C7 15.54 6.98 15.59 6.96 15.63C6.93 15.67 6.9 15.7 6.86 15.72C6.82 15.74 6.77 15.75 6.72 15.74C6.68 15.74 6.63 15.72 6.6 15.7L5.14 14.61C5.1 14.58 5.05 14.56 5 14.56C4.94 14.56 4.89 14.58 4.85 14.61L3.39 15.7C3.36 15.72 3.31 15.74 3.27 15.74C3.22 15.75 3.17 15.74 3.13 15.72C3.09 15.7 3.06 15.67 3.03 15.63C3.01 15.59 3 15.54 3 15.5L3 12.25Z" fill="#8B949E" fill-opacity="1.000000" fill-rule="nonzero"/>
</svg>
