<svg width="14.816406" height="14.163086" viewBox="0 0 14.8164 14.1631" fill="none" xmlns="http://www.w3.org/2000/svg" xmlns:xlink="http://www.w3.org/1999/xlink">
	<desc>
			Created with Pixso.
	</desc>
	<defs/>
	<path id="Vector" d="M7.4 0C7.54 0 7.68 0.03 7.8 0.11C7.92 0.18 8.02 0.29 8.08 0.41L9.96 4.23L14.17 4.84C14.31 4.86 14.44 4.92 14.54 5.01C14.65 5.1 14.73 5.22 14.77 5.35C14.82 5.48 14.82 5.63 14.79 5.76C14.76 5.9 14.69 6.02 14.58 6.12L11.54 9.09L12.26 13.28C12.28 13.42 12.27 13.56 12.21 13.69C12.16 13.82 12.07 13.93 11.96 14.01C11.85 14.1 11.71 14.14 11.57 14.16C11.43 14.17 11.29 14.14 11.17 14.07L7.4 12.09L3.64 14.07C3.51 14.14 3.37 14.17 3.24 14.16C3.1 14.15 2.96 14.1 2.85 14.02C2.74 13.93 2.65 13.82 2.59 13.69C2.54 13.56 2.53 13.42 2.55 13.28L3.27 9.09L0.22 6.12C0.12 6.02 0.05 5.9 0.02 5.76C-0.02 5.63 -0.01 5.48 0.03 5.35C0.08 5.22 0.16 5.1 0.26 5.01C0.37 4.92 0.5 4.86 0.64 4.84L4.85 4.23L6.73 0.41C6.79 0.29 6.89 0.18 7.01 0.11C7.13 0.03 7.26 0 7.4 0ZM7.4 2.44L6.02 5.25C5.97 5.35 5.89 5.45 5.79 5.52C5.69 5.59 5.58 5.64 5.45 5.66L2.36 6.1L4.6 8.29C4.69 8.37 4.75 8.48 4.79 8.59C4.83 8.71 4.83 8.83 4.81 8.95L4.29 12.04L7.06 10.58C7.16 10.52 7.28 10.5 7.4 10.5C7.53 10.5 7.65 10.52 7.75 10.58L10.52 12.04L9.99 8.95C9.97 8.83 9.98 8.71 10.02 8.59C10.06 8.48 10.12 8.37 10.21 8.29L12.45 6.11L9.35 5.66C9.23 5.64 9.12 5.59 9.02 5.52C8.92 5.45 8.84 5.35 8.79 5.25L7.4 2.44Z" fill="#8B949E" fill-opacity="1.000000" fill-rule="nonzero"/>
</svg>
